<?xml version="1.0" encoding="UTF-8" standalone="no"?>
<svg
   xmlns:dc="http://purl.org/dc/elements/1.1/"
   xmlns:cc="http://creativecommons.org/ns#"
   xmlns:rdf="http://www.w3.org/1999/02/22-rdf-syntax-ns#"
   xmlns:svg="http://www.w3.org/2000/svg"
   xmlns="http://www.w3.org/2000/svg"
   viewBox="0 0 793.33331 1122.6667"
   height="1122.6667"
   width="793.33331"
   xml:space="preserve"
   id="svg2"
   version="1.1"><metadata
     id="metadata8"><rdf:RDF><cc:Work
         rdf:about=""><dc:format>image/svg+xml</dc:format><dc:type
           rdf:resource="http://purl.org/dc/dcmitype/StillImage" /></cc:Work></rdf:RDF></metadata><defs
     id="defs6"><clipPath
       id="clipPath18"
       clipPathUnits="userSpaceOnUse"><path
         id="path16"
         d="M 0,842 H 595 V 0 H 0 Z" /></clipPath></defs><g
     transform="matrix(1.3333333,0,0,-1.3333333,0,1122.6667)"
     id="g10"><g
       id="g12"><g
         clip-path="url(#clipPath18)"
         id="g14"><g
           transform="translate(292.7539,418.6094)"
           id="g20"><path
             id="path22"
             style="fill:#040407;fill-opacity:1;fill-rule:evenodd;stroke:none"
             d="m 0,0 h 20.409 c 0,0 0.238,-70.82 0,-100.609 0,-16.629 -8.061,-25.221 -16.263,-28.167 -6.586,-2.365 -13.409,-2.428 -20.654,-1.154 v 17.729 c 2.889,0 5.498,-0.251 8.04,0.055 4.711,0.565 7.412,3.208 8.039,7.87 0.396,2.938 0.429,8.916 0.429,8.916 z m 181.052,-16.053 v 0 c 10.919,2.429 19.987,-1.433 28.257,-8.54 4.124,4.333 7.943,8.346 11.97,12.577 -17.365,19.506 -50.347,19.837 -68.648,1.209 -18.188,-18.511 -17.389,-49.901 3.05,-67.16 19.472,-16.443 51.444,-14.037 65.51,4.157 -4.117,3.932 -8.262,7.891 -12.431,11.872 -15.752,-13.77 -33.231,-8.966 -41.093,-0.926 -9.39,9.604 -10.541,25.95 -2.325,36.961 3.948,5.29 9.265,8.416 15.71,9.85 M -64.243,-70.771 v 0 c -15.561,-0.084 -27.36,11.771 -27.489,27.621 -0.127,15.499 11.932,27.621 27.526,27.669 14.886,0.045 26.971,-12.357 26.989,-27.698 0.018,-15.334 -11.909,-27.512 -27.026,-27.592 m -0.328,73.455 v 0 c -10.379,0.13 -19.773,-2.91 -27.409,-8.108 v 47.358 h -19.985 v -84.356 c -0.004,-0.275 -0.002,-0.551 0,-0.827 v -0.099 h 0.003 c 0.045,-5.527 1.09,-11.224 3.311,-16.899 8.878,-22.674 35.285,-34.406 59.288,-26.58 23.58,7.688 36.585,30.582 30.919,54.631 -5.171,21.947 -25.842,35.555 -46.127,34.88 M 59.153,-33.82 v 0 c 0.468,10.854 11.25,19.282 24.206,19.273 12.191,-0.009 21.589,-8.168 21.912,-19.273 z m 0.529,30.599 v 0 C 46.257,-10.813 39.661,-22.854 38.11,-37.787 c -1.891,-18.197 4.472,-38.994 26.46,-47.44 11.819,-4.54 24.028,-4.826 36.148,-0.893 7.554,2.452 14.022,6.661 19.473,13.005 -4.029,3.851 -7.873,7.524 -11.821,11.298 -1.91,-1.46 -3.336,-2.628 -4.838,-3.689 -10.177,-7.193 -21.136,-7.831 -32.334,-3.126 -8.347,3.507 -12.982,11.489 -12.365,20.477 h 66.833 c 1.57,14.417 -1.091,26.621 -10.129,36.882 C 102.271,3.786 78.111,7.202 59.682,-3.221 m 218.053,7.316 v 0 19.117 h -20.949 v 18.722 h -20.698 c 0,0 -0.089,-84.969 0,-96.864 0.029,-3.896 0.179,-7.827 0.722,-11.678 2.569,-18.22 20.289,-27.968 37.489,-20.816 v 16.936 c -2.141,0 -3.812,0.014 -5.482,-0.003 -8.377,-0.082 -11.859,2.808 -12.031,11.045 -0.274,13.028 0,63.541 0,63.541 z M -214.351,23.447 V 5.188 h -19.115 v -18.522 h -20.409 V 5.188 h -19.114 v 18.259 h 19.114 v 18.525 h 20.409 V 23.447 Z m 234.76,18.487 v 0 H 0 V 21.226 H 20.409 Z M -173.954,-70.771 v 0 c -15.562,-0.084 -27.36,11.771 -27.49,27.621 -0.127,15.499 11.932,27.621 27.527,27.669 14.885,0.045 26.97,-12.357 26.988,-27.698 0.018,-15.334 -11.909,-27.512 -27.025,-27.592 m -0.329,73.455 c -33.21,0.42 -56.331,-31.638 -44.079,-62.931 8.877,-22.674 35.284,-34.406 59.287,-26.58 23.58,7.688 36.585,30.582 30.919,54.631 -5.171,21.947 -25.842,35.555 -46.127,34.88" /></g></g></g></g></svg>